<svg width="123" height="34" viewBox="0 0 123 34" fill="none" xmlns="http://www.w3.org/2000/svg">
<path d="M0.92 28V-1.90735e-06H6.4V23.36H14.72V28H0.92ZM26.4834 11.76H23.4834C23.0834 12.24 22.7501 12.9067 22.4834 13.76C22.2434 14.6133 22.1234 15.44 22.1234 16.24H27.8434C27.8968 15.44 27.7901 14.6133 27.5234 13.76C27.2568 12.88 26.9101 12.2133 26.4834 11.76ZM31.9234 23.8V28H21.7634C19.8968 26.7467 18.5768 25.2 17.8034 23.36C17.0568 21.4933 16.6834 19.6133 16.6834 17.72C16.6834 13.3467 18.3368 9.96 21.6434 7.56H28.1234C29.9101 8.86667 31.1234 10.2533 31.7634 11.72C32.4034 13.1867 32.7234 14.6667 32.7234 16.16C32.7234 17.6533 32.6034 18.9333 32.3634 20H22.4034C22.4834 20.6133 22.7101 21.32 23.0834 22.12C23.4834 22.8933 23.9101 23.4533 24.3634 23.8H31.9234ZM45.0475 18.76H40.7675C40.2075 19.4533 39.9275 20.32 39.9275 21.36C39.9275 22.4 40.2208 23.2133 40.8075 23.8H45.0475V18.76ZM36.4475 7.56H46.3675C47.9675 8.52 49.0208 9.62667 49.5275 10.88C50.0342 12.1067 50.2875 13.7867 50.2875 15.92V21.92C50.2875 24.1333 50.3408 26.16 50.4475 28H45.8875L45.1675 26.56C44.1275 27.52 42.6608 28 40.7675 28H38.2475C35.9808 26.5067 34.8475 24.36 34.8475 21.56C34.8475 18.7333 36.0075 16.5067 38.3275 14.88H42.0875C43.1275 14.88 44.1008 15.2 45.0075 15.84V13.84C45.0075 12.8 44.5542 12.1067 43.6475 11.76H36.4475V7.56ZM53.7678 28V7.56H57.5678L58.5678 9.72C59.6345 8.28 60.9811 7.56 62.6078 7.56H64.1678V12.92H59.0878V28H53.7678ZM75.3422 7.56H79.5822C80.7555 9.05333 81.5555 10.5467 81.9822 12.04C82.4089 13.5333 82.6222 15.4 82.6222 17.64V28H77.3022V17.24C77.3022 14.7067 76.9555 12.88 76.2622 11.76H71.7822V28H66.4622V7.56H70.6222L71.3422 9C71.9289 8.46667 72.4755 8.09333 72.9822 7.88C73.5155 7.66667 74.3022 7.56 75.3422 7.56Z" fill="#990BF5"/>
<path d="M85.9153 28V7.56H91.1953V28H85.9153ZM85.9153 -1.90735e-06H91.1953V5.4H85.9153V-1.90735e-06Z" fill="#4CC9F0"/>
<path d="M99.9863 -1.90735e-06H105.746V4.2H102.146C101.24 4.76 100.786 5.88 100.786 7.56H104.946V11.76H100.786V28H95.4663V11.76H93.2663V7.56H95.4663C95.4663 4.09333 96.9729 1.57333 99.9863 -1.90735e-06ZM106.889 16.76V7.56H112.209V16.8C112.209 19.12 112.676 21.0533 113.609 22.6H115.969C116.849 21.08 117.289 19.1467 117.289 16.8V7.56H122.609V16.48C122.609 18.48 122.342 20.24 121.809 21.76C121.302 23.28 120.462 25 119.289 26.92L116.609 31.28C116.129 32.1067 115.622 32.72 115.089 33.12C114.556 33.52 113.862 33.8133 113.009 34H106.689V29.8H111.009C111.569 29.64 112.036 29.36 112.409 28.96C112.782 28.56 113.169 27.9867 113.569 27.24L113.809 26.8H111.049C109.769 25.76 108.756 24.36 108.009 22.6C107.262 20.8133 106.889 18.8667 106.889 16.76Z" fill="#F72585"/>
</svg>
