<svg width="122" height="34" viewBox="0 0 122 34" fill="none" xmlns="http://www.w3.org/2000/svg">
<path d="M0.175554 28V-1.90735e-06H5.65555V23.36H13.9756V28H0.175554ZM25.739 11.76H22.739C22.339 12.24 22.0057 12.9067 21.739 13.76C21.499 14.6133 21.379 15.44 21.379 16.24H27.099C27.1523 15.44 27.0457 14.6133 26.779 13.76C26.5123 12.88 26.1657 12.2133 25.739 11.76ZM31.179 23.8V28H21.019C19.1523 26.7467 17.8323 25.2 17.059 23.36C16.3123 21.4933 15.939 19.6133 15.939 17.72C15.939 13.3467 17.5923 9.96 20.899 7.56H27.379C29.1657 8.86667 30.379 10.2533 31.019 11.72C31.659 13.1867 31.979 14.6667 31.979 16.16C31.979 17.6533 31.859 18.9333 31.619 20H21.659C21.739 20.6133 21.9657 21.32 22.339 22.12C22.739 22.8933 23.1657 23.4533 23.619 23.8H31.179ZM44.3031 18.76H40.0231C39.4631 19.4533 39.1831 20.32 39.1831 21.36C39.1831 22.4 39.4764 23.2133 40.0631 23.8H44.3031V18.76ZM35.7031 7.56H45.6231C47.2231 8.52 48.2764 9.62667 48.7831 10.88C49.2897 12.1067 49.5431 13.7867 49.5431 15.92V21.92C49.5431 24.1333 49.5964 26.16 49.7031 28H45.1431L44.4231 26.56C43.3831 27.52 41.9164 28 40.0231 28H37.5031C35.2364 26.5067 34.1031 24.36 34.1031 21.56C34.1031 18.7333 35.2631 16.5067 37.5831 14.88H41.3431C42.3831 14.88 43.3564 15.2 44.2631 15.84V13.84C44.2631 12.8 43.8097 12.1067 42.9031 11.76H35.7031V7.56ZM53.0234 28V7.56H56.8234L57.8234 9.72C58.89 8.28 60.2367 7.56 61.8634 7.56H63.4234V12.92H58.3434V28H53.0234ZM74.5977 7.56H78.8377C80.0111 9.05333 80.8111 10.5467 81.2377 12.04C81.6644 13.5333 81.8777 15.4 81.8777 17.64V28H76.5577V17.24C76.5577 14.7067 76.2111 12.88 75.5177 11.76H71.0377V28H65.7177V7.56H69.8777L70.5977 9C71.1844 8.46667 71.7311 8.09333 72.2377 7.88C72.7711 7.66667 73.5577 7.56 74.5977 7.56Z" fill="#990BF5"/>
<path d="M85.1709 28V7.56H90.4509V28H85.1709ZM85.1709 -1.90735e-06H90.4509V5.4H85.1709V-1.90735e-06Z" fill="#4CC9F0"/>
<path d="M99.2418 -1.90735e-06H105.002V4.2H101.402C100.495 4.76 100.042 5.88 100.042 7.56H104.202V11.76H100.042V28H94.7218V11.76H92.5218V7.56H94.7218C94.7218 4.09333 96.2285 1.57333 99.2418 -1.90735e-06ZM106.145 16.76V7.56H111.465V16.8C111.465 19.12 111.931 21.0533 112.865 22.6H115.225C116.105 21.08 116.545 19.1467 116.545 16.8V7.56H121.865V16.48C121.865 18.48 121.598 20.24 121.065 21.76C120.558 23.28 119.718 25 118.545 26.92L115.865 31.28C115.385 32.1067 114.878 32.72 114.345 33.12C113.811 33.52 113.118 33.8133 112.265 34H105.945V29.8H110.265C110.825 29.64 111.291 29.36 111.665 28.96C112.038 28.56 112.425 27.9867 112.825 27.24L113.065 26.8H110.305C109.025 25.76 108.011 24.36 107.265 22.6C106.518 20.8133 106.145 18.8667 106.145 16.76Z" fill="#F72585"/>
<path d="M0.175554 28H-0.824446V29H0.175554V28ZM0.175554 -1.90735e-06V-1H-0.824446V-1.90735e-06H0.175554ZM5.65555 -1.90735e-06H6.65555V-1H5.65555V-1.90735e-06ZM5.65555 23.36H4.65555V24.36H5.65555V23.36ZM13.9756 23.36H14.9756V22.36H13.9756V23.36ZM13.9756 28V29H14.9756V28H13.9756ZM1.17555 28V-1.90735e-06H-0.824446V28H1.17555ZM0.175554 0.999998H5.65555V-1H0.175554V0.999998ZM4.65555 -1.90735e-06V23.36H6.65555V-1.90735e-06H4.65555ZM5.65555 24.36H13.9756V22.36H5.65555V24.36ZM12.9756 23.36V28H14.9756V23.36H12.9756ZM13.9756 27H0.175554V29H13.9756V27ZM25.739 11.76L26.4672 11.0746L26.1711 10.76H25.739V11.76ZM22.739 11.76V10.76H22.2706L21.9708 11.1198L22.739 11.76ZM21.739 13.76L20.7845 13.4617L20.7802 13.4754L20.7763 13.4893L21.739 13.76ZM21.379 16.24H20.379V17.24H21.379V16.24ZM27.099 16.24V17.24H28.0345L28.0968 16.3065L27.099 16.24ZM26.779 13.76L25.8219 14.05L25.8245 14.0583L26.779 13.76ZM31.179 23.8H32.179V22.8H31.179V23.8ZM31.179 28V29H32.179V28H31.179ZM21.019 28L20.4616 28.8302L20.7144 29H21.019V28ZM17.059 23.36L16.1305 23.7314L16.1337 23.7395L16.1371 23.7475L17.059 23.36ZM20.899 7.56V6.56H20.5743L20.3116 6.7507L20.899 7.56ZM27.379 7.56L27.9693 6.75283L27.7056 6.56H27.379V7.56ZM31.019 11.72L30.1025 12.1199L31.019 11.72ZM31.619 20V21H32.419L32.5946 20.2195L31.619 20ZM21.659 20V19H20.5201L20.6674 20.1293L21.659 20ZM22.339 22.12L21.4328 22.5429L21.4414 22.5613L21.4508 22.5794L22.339 22.12ZM23.619 23.8L23.0115 24.5944L23.2805 24.8H23.619V23.8ZM25.739 10.76H22.739V12.76H25.739V10.76ZM21.9708 11.1198C21.459 11.7339 21.0747 12.533 20.7845 13.4617L22.6935 14.0583C22.9366 13.2804 23.219 12.7461 23.5072 12.4002L21.9708 11.1198ZM20.7763 13.4893C20.5142 14.4213 20.379 15.3392 20.379 16.24H22.379C22.379 15.5408 22.4838 14.8054 22.7016 14.0307L20.7763 13.4893ZM21.379 17.24H27.099V15.24H21.379V17.24ZM28.0968 16.3065C28.1592 15.3699 28.0328 14.4194 27.7335 13.4617L25.8245 14.0583C26.0586 14.8072 26.1454 15.5101 26.1012 16.1735L28.0968 16.3065ZM27.736 13.47C27.4443 12.5072 27.0379 11.681 26.4672 11.0746L25.0108 12.4454C25.2934 12.7457 25.5804 13.2528 25.822 14.05L27.736 13.47ZM30.179 23.8V28H32.179V23.8H30.179ZM31.179 27H21.019V29H31.179V27ZM21.5764 27.1698C19.8507 26.0111 18.6692 24.6104 17.9809 22.9725L16.1371 23.7475C16.9954 25.7896 18.454 27.4823 20.4616 28.8302L21.5764 27.1698ZM17.9875 22.9886C17.2851 21.2327 16.939 19.4784 16.939 17.72H14.939C14.939 19.7483 15.3396 21.754 16.1305 23.7314L17.9875 22.9886ZM16.939 17.72C16.939 13.6406 18.4595 10.5662 21.4864 8.3693L20.3116 6.7507C16.7251 9.3538 14.939 13.0528 14.939 17.72H16.939ZM20.899 8.56H27.379V6.56H20.899V8.56ZM26.7887 8.36717C28.4848 9.6076 29.5553 10.866 30.1025 12.1199L31.9355 11.3201C31.2027 9.64062 29.8465 8.12573 27.9693 6.75283L26.7887 8.36717ZM30.1025 12.1199C30.6914 13.4696 30.979 14.814 30.979 16.16H32.979C32.979 14.5194 32.6266 12.9037 31.9355 11.3201L30.1025 12.1199ZM30.979 16.16C30.979 17.6043 30.8625 18.8066 30.6434 19.7805L32.5946 20.2195C32.8555 19.0601 32.979 17.7024 32.979 16.16H30.979ZM31.619 19H21.659V21H31.619V19ZM20.6674 20.1293C20.765 20.8775 21.033 21.6862 21.4328 22.5429L23.2452 21.6971C22.8983 20.9538 22.713 20.3491 22.6506 19.8707L20.6674 20.1293ZM21.4508 22.5794C21.8863 23.4214 22.3958 24.1235 23.0115 24.5944L24.2264 23.0056C23.9355 22.7832 23.5917 22.3653 23.2272 21.6606L21.4508 22.5794ZM23.619 24.8H31.179V22.8H23.619V24.8ZM44.3031 18.76H45.3031V17.76H44.3031V18.76ZM40.0231 18.76V17.76H39.5453L39.2451 18.1317L40.0231 18.76ZM40.0631 23.8L39.3559 24.5071L39.6488 24.8H40.0631V23.8ZM44.3031 23.8V24.8H45.3031V23.8H44.3031ZM35.7031 7.56V6.56H34.7031V7.56H35.7031ZM45.6231 7.56L46.1376 6.70251L45.9 6.56H45.6231V7.56ZM48.7831 10.88L47.8559 11.2548L47.8588 11.2618L48.7831 10.88ZM49.7031 28V29H50.7627L50.7014 27.9421L49.7031 28ZM45.1431 28L44.2486 28.4472L44.525 29H45.1431V28ZM44.4231 26.56L45.3175 26.1128L44.7225 24.9227L43.7448 25.8252L44.4231 26.56ZM37.5031 28L36.9529 28.8351L37.2033 29H37.5031V28ZM37.5831 14.88V13.88H37.2674L37.009 14.0612L37.5831 14.88ZM44.2631 15.84L43.6864 16.657L45.2631 17.7699V15.84H44.2631ZM42.9031 11.76L43.2602 10.8259L43.0877 10.76H42.9031V11.76ZM35.7031 11.76H34.7031V12.76H35.7031V11.76ZM44.3031 17.76H40.0231V19.76H44.3031V17.76ZM39.2451 18.1317C38.5182 19.0317 38.1831 20.1313 38.1831 21.36H40.1831C40.1831 20.5087 40.4079 19.875 40.801 19.3883L39.2451 18.1317ZM38.1831 21.36C38.1831 22.5943 38.5369 23.6881 39.3559 24.5071L40.7702 23.0929C40.4159 22.7386 40.1831 22.2057 40.1831 21.36H38.1831ZM40.0631 24.8H44.3031V22.8H40.0631V24.8ZM45.3031 23.8V18.76H43.3031V23.8H45.3031ZM35.7031 8.56H45.6231V6.56H35.7031V8.56ZM45.1086 8.41749C46.5918 9.30742 47.4566 10.267 47.8559 11.2548L49.7102 10.5052C49.0962 8.98635 47.8543 7.73258 46.1376 6.70251L45.1086 8.41749ZM47.8588 11.2618C48.2943 12.3161 48.5431 13.8476 48.5431 15.92H50.5431C50.5431 13.7257 50.2852 11.8972 49.7073 10.4982L47.8588 11.2618ZM48.5431 15.92V21.92H50.5431V15.92H48.5431ZM48.5431 21.92C48.5431 24.1489 48.5968 26.1952 48.7047 28.0579L50.7014 27.9421C50.596 26.1248 50.5431 24.1177 50.5431 21.92H48.5431ZM49.7031 27H45.1431V29H49.7031V27ZM46.0375 27.5528L45.3175 26.1128L43.5286 27.0072L44.2486 28.4472L46.0375 27.5528ZM43.7448 25.8252C42.9445 26.5639 41.7516 27 40.0231 27V29C42.0812 29 43.8216 28.4761 45.1013 27.2948L43.7448 25.8252ZM40.0231 27H37.5031V29H40.0231V27ZM38.0532 27.1649C36.0779 25.8635 35.1031 24.0365 35.1031 21.56H33.1031C33.1031 24.6835 34.3949 27.1498 36.9529 28.8351L38.0532 27.1649ZM35.1031 21.56C35.1031 19.0603 36.1033 17.1388 38.1571 15.6988L37.009 14.0612C34.4228 15.8745 33.1031 18.4064 33.1031 21.56H35.1031ZM37.5831 15.88H41.3431V13.88H37.5831V15.88ZM41.3431 15.88C42.1624 15.88 42.9365 16.1276 43.6864 16.657L44.8397 15.023C43.7763 14.2724 42.6037 13.88 41.3431 13.88V15.88ZM45.2631 15.84V13.84H43.2631V15.84H45.2631ZM45.2631 13.84C45.2631 13.1752 45.1173 12.5392 44.76 11.9928C44.3993 11.441 43.8754 11.0612 43.2602 10.8259L42.5459 12.6941C42.8374 12.8055 42.9935 12.9457 43.0861 13.0872C43.1822 13.2342 43.2631 13.4648 43.2631 13.84H45.2631ZM42.9031 10.76H35.7031V12.76H42.9031V10.76ZM36.7031 11.76V7.56H34.7031V11.76H36.7031ZM53.0234 28H52.0234V29H53.0234V28ZM53.0234 7.56V6.56H52.0234V7.56H53.0234ZM56.8234 7.56L57.7308 7.13988L57.4624 6.56H56.8234V7.56ZM57.8234 9.72L56.9159 10.1401L57.6239 11.6693L58.6269 10.3152L57.8234 9.72ZM63.4234 7.56H64.4234V6.56H63.4234V7.56ZM63.4234 12.92V13.92H64.4234V12.92H63.4234ZM58.3434 12.92V11.92H57.3434V12.92H58.3434ZM58.3434 28V29H59.3434V28H58.3434ZM54.0234 28V7.56H52.0234V28H54.0234ZM53.0234 8.56H56.8234V6.56H53.0234V8.56ZM55.9159 7.98012L56.9159 10.1401L58.7308 9.29988L57.7308 7.13988L55.9159 7.98012ZM58.6269 10.3152C59.5272 9.09991 60.589 8.56 61.8634 8.56V6.56C59.8844 6.56 58.2529 7.46009 57.0198 9.12477L58.6269 10.3152ZM61.8634 8.56H63.4234V6.56H61.8634V8.56ZM62.4234 7.56V12.92H64.4234V7.56H62.4234ZM63.4234 11.92H58.3434V13.92H63.4234V11.92ZM57.3434 12.92V28H59.3434V12.92H57.3434ZM58.3434 27H53.0234V29H58.3434V27ZM78.8377 7.56L79.6241 6.94218L79.3238 6.56H78.8377V7.56ZM81.8777 28V29H82.8777V28H81.8777ZM76.5577 28H75.5577V29H76.5577V28ZM75.5177 11.76L76.368 11.2336L76.0748 10.76H75.5177V11.76ZM71.0377 11.76V10.76H70.0377V11.76H71.0377ZM71.0377 28V29H72.0377V28H71.0377ZM65.7177 28H64.7177V29H65.7177V28ZM65.7177 7.56V6.56H64.7177V7.56H65.7177ZM69.8777 7.56L70.7722 7.11279L70.4958 6.56H69.8777V7.56ZM70.5977 9L69.7033 9.44721L70.2937 10.6279L71.2704 9.73994L70.5977 9ZM72.2377 7.88L71.8663 6.95152L71.858 6.95487L71.8497 6.95836L72.2377 7.88ZM74.5977 8.56H78.8377V6.56H74.5977V8.56ZM78.0514 8.17782C79.162 9.5913 79.8921 10.9704 80.2762 12.3147L82.1993 11.7653C81.73 10.1229 80.8601 8.51537 79.6241 6.94218L78.0514 8.17782ZM80.2762 12.3147C80.6688 13.6889 80.8777 15.4557 80.8777 17.64H82.8777C82.8777 15.3443 82.66 13.3778 82.1993 11.7653L80.2762 12.3147ZM80.8777 17.64V28H82.8777V17.64H80.8777ZM81.8777 27H76.5577V29H81.8777V27ZM77.5577 28V17.24H75.5577V28H77.5577ZM77.5577 17.24C77.5577 14.6643 77.2142 12.6006 76.368 11.2336L74.6675 12.2864C75.2079 13.1594 75.5577 14.749 75.5577 17.24H77.5577ZM75.5177 10.76H71.0377V12.76H75.5177V10.76ZM70.0377 11.76V28H72.0377V11.76H70.0377ZM71.0377 27H65.7177V29H71.0377V27ZM66.7177 28V7.56H64.7177V28H66.7177ZM65.7177 8.56H69.8777V6.56H65.7177V8.56ZM68.9833 8.00721L69.7033 9.44721L71.4922 8.55279L70.7722 7.11279L68.9833 8.00721ZM71.2704 9.73994C71.807 9.2521 72.2588 8.95617 72.6258 8.80164L71.8497 6.95836C71.2034 7.23049 70.5618 7.68123 69.9251 8.26006L71.2704 9.73994ZM72.6091 8.80848C72.9645 8.66632 73.5988 8.56 74.5977 8.56V6.56C73.5167 6.56 72.5776 6.66701 71.8663 6.95152L72.6091 8.80848ZM85.1709 28H84.1709V29H85.1709V28ZM85.1709 7.56V6.56H84.1709V7.56H85.1709ZM90.4509 7.56H91.4509V6.56H90.4509V7.56ZM90.4509 28V29H91.4509V28H90.4509ZM85.1709 -1.90735e-06V-1H84.1709V-1.90735e-06H85.1709ZM90.4509 -1.90735e-06H91.4509V-1H90.4509V-1.90735e-06ZM90.4509 5.4V6.4H91.4509V5.4H90.4509ZM85.1709 5.4H84.1709V6.4H85.1709V5.4ZM86.1709 28V7.56H84.1709V28H86.1709ZM85.1709 8.56H90.4509V6.56H85.1709V8.56ZM89.4509 7.56V28H91.4509V7.56H89.4509ZM90.4509 27H85.1709V29H90.4509V27ZM85.1709 0.999998H90.4509V-1H85.1709V0.999998ZM89.4509 -1.90735e-06V5.4H91.4509V-1.90735e-06H89.4509ZM90.4509 4.4H85.1709V6.4H90.4509V4.4ZM86.1709 5.4V-1.90735e-06H84.1709V5.4H86.1709ZM99.2418 -1.90735e-06V-1H98.9965L98.779 -0.886447L99.2418 -1.90735e-06ZM105.002 -1.90735e-06H106.002V-1H105.002V-1.90735e-06ZM105.002 4.2V5.2H106.002V4.2H105.002ZM101.402 4.2V3.2H101.118L100.876 3.3492L101.402 4.2ZM100.042 7.56H99.0418V8.56H100.042V7.56ZM104.202 7.56H105.202V6.56H104.202V7.56ZM104.202 11.76V12.76H105.202V11.76H104.202ZM100.042 11.76V10.76H99.0418V11.76H100.042ZM100.042 28V29H101.042V28H100.042ZM94.7218 28H93.7218V29H94.7218V28ZM94.7218 11.76H95.7218V10.76H94.7218V11.76ZM92.5218 11.76H91.5218V12.76H92.5218V11.76ZM92.5218 7.56V6.56H91.5218V7.56H92.5218ZM94.7218 7.56V8.56H95.7218V7.56H94.7218ZM99.2418 0.999998H105.002V-1H99.2418V0.999998ZM104.002 -1.90735e-06V4.2H106.002V-1.90735e-06H104.002ZM105.002 3.2H101.402V5.2H105.002V3.2ZM100.876 3.3492C99.5318 4.17965 99.0418 5.74343 99.0418 7.56H101.042C101.042 6.01656 101.458 5.34035 101.927 5.0508L100.876 3.3492ZM100.042 8.56H104.202V6.56H100.042V8.56ZM103.202 7.56V11.76H105.202V7.56H103.202ZM104.202 10.76H100.042V12.76H104.202V10.76ZM99.0418 11.76V28H101.042V11.76H99.0418ZM100.042 27H94.7218V29H100.042V27ZM95.7218 28V11.76H93.7218V28H95.7218ZM94.7218 10.76H92.5218V12.76H94.7218V10.76ZM93.5218 11.76V7.56H91.5218V11.76H93.5218ZM92.5218 8.56H94.7218V6.56H92.5218V8.56ZM95.7218 7.56C95.7218 5.97442 96.0651 4.66201 96.7101 3.58316C97.3545 2.5054 98.3354 1.60133 99.7046 0.886443L98.779 -0.886447C97.1348 -0.0280027 95.8558 1.1146 94.9935 2.55684C94.1319 3.99798 93.7218 5.67891 93.7218 7.56H95.7218ZM106.145 7.56V6.56H105.145V7.56H106.145ZM111.465 7.56H112.465V6.56H111.465V7.56ZM112.865 22.6L112.008 23.1167L112.3 23.6H112.865V22.6ZM115.225 22.6V23.6H115.801L116.09 23.101L115.225 22.6ZM116.545 7.56V6.56H115.545V7.56H116.545ZM121.865 7.56H122.865V6.56H121.865V7.56ZM121.065 21.76L120.121 21.4289L120.118 21.4363L120.116 21.4438L121.065 21.76ZM118.545 26.92L119.397 27.4437L119.398 27.4414L118.545 26.92ZM115.865 31.28L115.013 30.7563L115.006 30.767L115 30.7779L115.865 31.28ZM114.345 33.12L113.745 32.32L114.345 33.12ZM112.265 34V35H112.373L112.478 34.9769L112.265 34ZM105.945 34H104.945V35H105.945V34ZM105.945 29.8V28.8H104.945V29.8H105.945ZM110.265 29.8V30.8H110.405L110.539 30.7615L110.265 29.8ZM111.665 28.96L110.934 28.2777L111.665 28.96ZM112.825 27.24L111.947 26.7611L111.943 26.7678L112.825 27.24ZM113.065 26.8L113.943 27.2789L114.749 25.8H113.065V26.8ZM110.305 26.8L109.674 27.5761L109.95 27.8H110.305V26.8ZM107.265 22.6L106.342 22.9856L106.344 22.9906L107.265 22.6ZM107.145 16.76V7.56H105.145V16.76H107.145ZM106.145 8.56H111.465V6.56H106.145V8.56ZM110.465 7.56V16.8H112.465V7.56H110.465ZM110.465 16.8C110.465 19.2512 110.958 21.3756 112.008 23.1167L113.721 22.0833C112.905 20.7311 112.465 18.9888 112.465 16.8H110.465ZM112.865 23.6H115.225V21.6H112.865V23.6ZM116.09 23.101C117.083 21.386 117.545 19.2655 117.545 16.8H115.545C115.545 19.0279 115.126 20.774 114.359 22.099L116.09 23.101ZM117.545 16.8V7.56H115.545V16.8H117.545ZM116.545 8.56H121.865V6.56H116.545V8.56ZM120.865 7.56V16.48H122.865V7.56H120.865ZM120.865 16.48C120.865 18.3934 120.609 20.0375 120.121 21.4289L122.008 22.0911C122.587 20.4425 122.865 18.5666 122.865 16.48H120.865ZM120.116 21.4438C119.641 22.8696 118.84 24.5194 117.691 26.3985L119.398 27.4414C120.596 25.4806 121.475 23.6904 122.013 22.0762L120.116 21.4438ZM117.693 26.3963L115.013 30.7563L116.717 31.8037L119.397 27.4437L117.693 26.3963ZM115 30.7779C114.56 31.5349 114.135 32.0275 113.745 32.32L114.945 33.92C115.621 33.4125 116.209 32.6784 116.729 31.7821L115 30.7779ZM113.745 32.32C113.356 32.6118 112.806 32.858 112.051 33.0231L112.478 34.9769C113.43 34.7687 114.267 34.4282 114.945 33.92L113.745 32.32ZM112.265 33H105.945V35H112.265V33ZM106.945 34V29.8H104.945V34H106.945ZM105.945 30.8H110.265V28.8H105.945V30.8ZM110.539 30.7615C111.262 30.555 111.89 30.1837 112.396 29.6423L110.934 28.2777C110.692 28.5363 110.387 28.725 109.99 28.8385L110.539 30.7615ZM112.396 29.6423C112.851 29.1545 113.285 28.4984 113.706 27.7122L111.943 26.7678C111.564 27.475 111.225 27.9655 110.934 28.2777L112.396 29.6423ZM113.703 27.7189L113.943 27.2789L112.187 26.3211L111.947 26.7611L113.703 27.7189ZM113.065 25.8H110.305V27.8H113.065V25.8ZM110.935 26.0239C109.801 25.1021 108.878 23.8432 108.185 22.2094L106.344 22.9906C107.144 24.8768 108.249 26.4179 109.674 27.5761L110.935 26.0239ZM108.187 22.2144C107.496 20.5603 107.145 18.746 107.145 16.76H105.145C105.145 18.9873 105.54 21.0664 106.342 22.9856L108.187 22.2144Z" fill="black"/>
</svg>
